<svg xmlns="http://www.w3.org/2000/svg" viewBox="0 0 100 100" fill="none">
  <rect width="100" height="100" rx="20" fill="#FFFC00"/>
  <path d="M50 25C40 25 32 33 32 43C32 45 32 47 32.5 49L28 50C27 50.3 27 51 28 51.5L32 53C31 58 27 62 25 63C24 63.5 24 64.5 25 65C30 67 35 68 40 70C41 72 42 75 50 75C58 75 59 72 60 70C65 68 70 67 75 65C76 64.5 76 63.5 75 63C73 62 69 58 68 53L72 51.5C73 51 73 50.3 72 50L67.5 49C68 47 68 45 68 43C68 33 60 25 50 25Z" fill="white" stroke="black" stroke-width="2"/>
</svg>
