<svg xmlns="http://www.w3.org/2000/svg" viewBox="0 0 100 100" fill="none">
  <rect width="100" height="100" rx="20" fill="#000000"/>
  <path d="M65 30C65 30 62 25 55 25V55C55 60.5 50.5 65 45 65C39.5 65 35 60.5 35 55C35 49.5 39.5 45 45 45V35C34 35 25 44 25 55C25 66 34 75 45 75C56 75 65 66 65 55V42C68 44 72 45 77 45V35C72 35 67 32 65 30Z" fill="#FE2C55"/>
  <path d="M62 27C62 27 59 22 52 22V52C52 57.5 47.5 62 42 62C36.5 62 32 57.5 32 52C32 46.5 36.5 42 42 42V32C31 32 22 41 22 52C22 63 31 72 42 72C53 72 62 63 62 52V39C65 41 69 42 74 42V32C69 32 64 29 62 27Z" fill="#25F4EE"/>
</svg>
